<svg id="Слой_1" data-name="Слой 1" xmlns="http://www.w3.org/2000/svg" viewBox="0 0 158 158"><defs><style>.cls-1{fill:#2f91c1;}</style></defs><path class="cls-1" d="M123.91,149.06c-20.52,0-37.93.21-55.34-.08C58.19,148.81,46,146.52,46,126c0-17.27,4.2-24.89,20.32-25.7,13.83-.7,52,.78,59.68.13-3.74-6.84-7.16-12.58-9-17.1-4.62-11.65-6.3-21.93,3.06-30.5,9-8.22,20.58-9.61,29.11-.78,17.24,17.81,33.28,36.9,49,56.32,8.59,10.57,7.31,24.39-2.22,35.88Q175.45,169,154,192.83c-12,13.24-21.63,14.41-31.91,5.09-9.75-8.84-10.59-20.61-2.71-37.14C120.38,158.59,121.14,156.21,123.91,149.06Z" transform="translate(-46 -46)"/></svg>